<mxfile host="app.diagrams.net" modified="2023-04-04T17:36:07.055Z" agent="Mozilla/5.0 (Windows NT 10.0; Win64; x64; rv:109.0) Gecko/20100101 Firefox/111.0" etag="bN9Whk9kGdlgTgfFeKZL" version="21.1.4" type="device">
  <diagram name="Page-1" id="czUZ3cS3veSB9Pk6Y8h7">
    <mxGraphModel dx="1290" dy="530" grid="1" gridSize="10" guides="1" tooltips="1" connect="1" arrows="1" fold="1" page="1" pageScale="1" pageWidth="850" pageHeight="1100" math="0" shadow="0">
      <root>
        <mxCell id="0" />
        <mxCell id="1" parent="0" />
        <mxCell id="EDY4hEMVbaSGnVgebHn9-3" style="edgeStyle=orthogonalEdgeStyle;rounded=0;orthogonalLoop=1;jettySize=auto;html=1;exitX=0.5;exitY=1;exitDx=0;exitDy=0;entryX=0.5;entryY=0;entryDx=0;entryDy=0;" edge="1" parent="1" source="EDY4hEMVbaSGnVgebHn9-1" target="EDY4hEMVbaSGnVgebHn9-2">
          <mxGeometry relative="1" as="geometry" />
        </mxCell>
        <mxCell id="EDY4hEMVbaSGnVgebHn9-1" value="UART nuskaitymas" style="rounded=0;whiteSpace=wrap;html=1;" vertex="1" parent="1">
          <mxGeometry x="200" y="120" width="120" height="60" as="geometry" />
        </mxCell>
        <mxCell id="EDY4hEMVbaSGnVgebHn9-6" style="edgeStyle=orthogonalEdgeStyle;rounded=0;orthogonalLoop=1;jettySize=auto;html=1;exitX=0.5;exitY=1;exitDx=0;exitDy=0;entryX=0.5;entryY=0;entryDx=0;entryDy=0;" edge="1" parent="1" source="EDY4hEMVbaSGnVgebHn9-2" target="EDY4hEMVbaSGnVgebHn9-5">
          <mxGeometry relative="1" as="geometry" />
        </mxCell>
        <mxCell id="EDY4hEMVbaSGnVgebHn9-2" value="Tikriname pirmąjį atsiųstą baitą" style="rounded=0;whiteSpace=wrap;html=1;" vertex="1" parent="1">
          <mxGeometry x="200" y="200" width="120" height="60" as="geometry" />
        </mxCell>
        <mxCell id="EDY4hEMVbaSGnVgebHn9-7" style="edgeStyle=orthogonalEdgeStyle;rounded=0;orthogonalLoop=1;jettySize=auto;html=1;exitX=1;exitY=0.5;exitDx=0;exitDy=0;" edge="1" parent="1" source="EDY4hEMVbaSGnVgebHn9-5">
          <mxGeometry relative="1" as="geometry">
            <mxPoint x="400" y="160" as="targetPoint" />
          </mxGeometry>
        </mxCell>
        <mxCell id="EDY4hEMVbaSGnVgebHn9-10" style="edgeStyle=orthogonalEdgeStyle;rounded=0;orthogonalLoop=1;jettySize=auto;html=1;exitX=0.5;exitY=1;exitDx=0;exitDy=0;entryX=0.5;entryY=0;entryDx=0;entryDy=0;" edge="1" parent="1" source="EDY4hEMVbaSGnVgebHn9-5" target="EDY4hEMVbaSGnVgebHn9-9">
          <mxGeometry relative="1" as="geometry" />
        </mxCell>
        <mxCell id="EDY4hEMVbaSGnVgebHn9-5" value="Baitas = 0x01" style="rhombus;whiteSpace=wrap;html=1;" vertex="1" parent="1">
          <mxGeometry x="220" y="280" width="80" height="80" as="geometry" />
        </mxCell>
        <mxCell id="EDY4hEMVbaSGnVgebHn9-8" value="Grįžtame į miego būseną" style="text;html=1;strokeColor=none;fillColor=none;align=center;verticalAlign=middle;whiteSpace=wrap;rounded=0;" vertex="1" parent="1">
          <mxGeometry x="365" y="120" width="60" height="30" as="geometry" />
        </mxCell>
        <mxCell id="EDY4hEMVbaSGnVgebHn9-14" style="edgeStyle=orthogonalEdgeStyle;rounded=0;orthogonalLoop=1;jettySize=auto;html=1;exitX=0.5;exitY=1;exitDx=0;exitDy=0;entryX=0.5;entryY=0;entryDx=0;entryDy=0;" edge="1" parent="1" source="EDY4hEMVbaSGnVgebHn9-9" target="EDY4hEMVbaSGnVgebHn9-13">
          <mxGeometry relative="1" as="geometry" />
        </mxCell>
        <mxCell id="EDY4hEMVbaSGnVgebHn9-9" value="Sudarome naują kalibracijos vertę iš dviejų baitų" style="rounded=0;whiteSpace=wrap;html=1;" vertex="1" parent="1">
          <mxGeometry x="200" y="380" width="120" height="60" as="geometry" />
        </mxCell>
        <mxCell id="EDY4hEMVbaSGnVgebHn9-11" value="Taip" style="text;html=1;strokeColor=none;fillColor=none;align=center;verticalAlign=middle;whiteSpace=wrap;rounded=0;" vertex="1" parent="1">
          <mxGeometry x="200" y="350" width="60" height="30" as="geometry" />
        </mxCell>
        <mxCell id="EDY4hEMVbaSGnVgebHn9-12" value="Ne" style="text;html=1;strokeColor=none;fillColor=none;align=center;verticalAlign=middle;whiteSpace=wrap;rounded=0;" vertex="1" parent="1">
          <mxGeometry x="290" y="290" width="60" height="30" as="geometry" />
        </mxCell>
        <mxCell id="EDY4hEMVbaSGnVgebHn9-16" style="edgeStyle=orthogonalEdgeStyle;rounded=0;orthogonalLoop=1;jettySize=auto;html=1;exitX=0.5;exitY=1;exitDx=0;exitDy=0;entryX=0.5;entryY=0;entryDx=0;entryDy=0;" edge="1" parent="1" source="EDY4hEMVbaSGnVgebHn9-13" target="EDY4hEMVbaSGnVgebHn9-15">
          <mxGeometry relative="1" as="geometry" />
        </mxCell>
        <mxCell id="EDY4hEMVbaSGnVgebHn9-13" value="Įrašome naują vertę į FLASH atmintį" style="rounded=0;whiteSpace=wrap;html=1;" vertex="1" parent="1">
          <mxGeometry x="200" y="470" width="120" height="60" as="geometry" />
        </mxCell>
        <mxCell id="EDY4hEMVbaSGnVgebHn9-17" style="edgeStyle=orthogonalEdgeStyle;rounded=0;orthogonalLoop=1;jettySize=auto;html=1;exitX=0.5;exitY=1;exitDx=0;exitDy=0;" edge="1" parent="1" source="EDY4hEMVbaSGnVgebHn9-15">
          <mxGeometry relative="1" as="geometry">
            <mxPoint x="400" y="160" as="targetPoint" />
          </mxGeometry>
        </mxCell>
        <mxCell id="EDY4hEMVbaSGnVgebHn9-15" value="Nuskaitome FLASH atmintį ir atnaujiname naudojamą kalibracijos vertę" style="rounded=0;whiteSpace=wrap;html=1;" vertex="1" parent="1">
          <mxGeometry x="200" y="560" width="120" height="60" as="geometry" />
        </mxCell>
      </root>
    </mxGraphModel>
  </diagram>
</mxfile>
